<?xml version="1.0" encoding="UTF-8" standalone="no"?>
<!DOCTYPE svg PUBLIC "-//W3C//DTD SVG 1.1//EN" "http://www.w3.org/Graphics/SVG/1.1/DTD/svg11.dtd">
<svg width="100%" height="100%" viewBox="0 0 1516 611" version="1.1" xmlns="http://www.w3.org/2000/svg" xmlns:xlink="http://www.w3.org/1999/xlink" xml:space="preserve" xmlns:serif="http://www.serif.com/" style="fill-rule:evenodd;clip-rule:evenodd;stroke-linejoin:round;stroke-miterlimit:2;">
    <g transform="matrix(4.16667,0,0,4.16667,0,0)">
        <path d="M45.393,101.625L45.393,45.625L51.793,45.625L54.593,56.185L54.593,101.625L45.393,101.625ZM84.194,101.625L50.673,57.865L51.793,45.625L85.314,89.385L84.194,101.625ZM84.194,101.625L81.393,91.785L81.393,45.625L90.593,45.625L90.593,101.625L84.194,101.625Z" style="fill:rgb(33,37,39);fill-rule:nonzero;"/>
        <path d="M113.953,102.025L97.553,63.225L107.233,63.225L118.433,91.705L115.633,91.705L127.473,63.225L137.234,63.225L119.393,102.025L113.953,102.025ZM102.513,117.625L114.433,93.065L119.393,102.025L112.273,117.625L102.513,117.625Z" style="fill:rgb(33,37,39);fill-rule:nonzero;"/>
        <path d="M157.127,102.425C153.66,102.425 150.528,101.546 147.731,99.787C144.934,98.028 142.721,95.642 141.091,92.627C139.462,89.612 138.647,86.233 138.647,82.488C138.647,78.689 139.46,75.288 141.087,72.287C142.713,69.286 144.922,66.892 147.711,65.105C150.501,63.319 153.639,62.425 157.127,62.425C160.06,62.425 162.66,63.052 164.927,64.305C167.193,65.559 168.993,67.279 170.327,69.465C171.66,71.652 172.327,74.132 172.327,76.905L172.327,87.945C172.327,90.719 171.673,93.199 170.367,95.385C169.06,97.572 167.26,99.292 164.967,100.545C162.673,101.799 160.06,102.425 157.127,102.425ZM158.567,94.105C160.753,94.105 162.657,93.607 164.277,92.612C165.898,91.617 167.165,90.243 168.077,88.492C168.99,86.741 169.447,84.719 169.447,82.425C169.447,80.111 168.988,78.082 168.07,76.337C167.152,74.592 165.885,73.224 164.27,72.233C162.655,71.241 160.767,70.745 158.607,70.745C156.447,70.745 154.556,71.243 152.933,72.24C151.311,73.236 150.031,74.61 149.093,76.363C148.156,78.116 147.687,80.137 147.687,82.425C147.687,84.719 148.151,86.744 149.081,88.502C150.01,90.26 151.296,91.633 152.939,92.622C154.583,93.611 156.458,94.105 158.567,94.105ZM177.687,101.625L168.887,101.625L168.887,91.305L170.407,81.945L168.887,72.665L168.887,44.025L177.687,44.025L177.687,101.625Z" style="fill:rgb(33,37,39);fill-rule:nonzero;"/>
        <path d="M205.34,102.425C201.5,102.425 198.047,101.559 194.98,99.825C191.913,98.092 189.487,95.705 187.7,92.665C185.913,89.625 185.02,86.212 185.02,82.425C185.02,78.639 185.9,75.239 187.66,72.225C189.42,69.212 191.807,66.825 194.82,65.065C197.833,63.305 201.18,62.425 204.86,62.425C208.433,62.425 211.593,63.252 214.34,64.905C217.087,66.559 219.247,68.825 220.82,71.705C222.393,74.585 223.18,77.865 223.18,81.545C223.18,82.185 223.14,82.839 223.06,83.505C222.98,84.172 222.86,84.905 222.7,85.705L191.18,85.705L191.18,78.505L218.14,78.505L214.86,81.385C214.753,79.039 214.3,77.065 213.5,75.465C212.7,73.865 211.567,72.639 210.1,71.785C208.633,70.932 206.833,70.505 204.7,70.505C202.46,70.505 200.513,70.985 198.86,71.945C197.207,72.905 195.927,74.252 195.02,75.985C194.113,77.719 193.66,79.785 193.66,82.185C193.66,84.585 194.14,86.692 195.1,88.505C196.06,90.319 197.42,91.719 199.18,92.705C200.94,93.692 202.967,94.185 205.26,94.185C207.233,94.185 209.06,93.839 210.74,93.145C212.42,92.452 213.847,91.439 215.02,90.105L220.62,95.785C218.753,97.972 216.487,99.625 213.82,100.745C211.153,101.865 208.327,102.425 205.34,102.425Z" style="fill:rgb(33,37,39);fill-rule:nonzero;"/>
        <rect x="230.193" y="44.025" width="8.8" height="57.6" style="fill:rgb(33,37,39);"/>
        <path d="M248.873,101.625L248.873,63.225L257.673,63.225L257.673,101.625L248.873,101.625ZM253.273,56.185C251.78,56.185 250.54,55.679 249.553,54.665C248.567,53.652 248.073,52.399 248.073,50.905C248.073,49.412 248.567,48.159 249.553,47.145C250.54,46.132 251.78,45.625 253.273,45.625C254.82,45.625 256.073,46.132 257.033,47.145C257.993,48.159 258.473,49.412 258.473,50.905C258.473,52.399 257.993,53.652 257.033,54.665C256.073,55.679 254.82,56.185 253.273,56.185Z" style="fill:rgb(33,37,39);fill-rule:nonzero;"/>
        <path d="M285.153,102.425C281.367,102.425 277.94,101.545 274.873,99.785C271.807,98.025 269.393,95.625 267.633,92.585C265.873,89.545 264.993,86.159 264.993,82.425C264.993,78.639 265.873,75.239 267.633,72.225C269.393,69.212 271.807,66.825 274.873,65.065C277.94,63.305 281.367,62.425 285.153,62.425C288.14,62.425 290.927,62.999 293.513,64.145C296.1,65.292 298.3,66.932 300.113,69.065L294.353,74.905C293.233,73.572 291.887,72.572 290.313,71.905C288.74,71.239 287.02,70.905 285.153,70.905C282.967,70.905 281.033,71.399 279.353,72.385C277.673,73.372 276.367,74.719 275.433,76.425C274.5,78.132 274.033,80.132 274.033,82.425C274.033,84.665 274.5,86.652 275.433,88.385C276.367,90.119 277.673,91.479 279.353,92.465C281.033,93.452 282.967,93.945 285.153,93.945C287.02,93.945 288.74,93.612 290.313,92.945C291.887,92.279 293.233,91.279 294.353,89.945L300.113,95.785C298.3,97.919 296.1,99.559 293.513,100.705C290.927,101.852 288.14,102.425 285.153,102.425Z" style="fill:rgb(33,37,39);fill-rule:nonzero;"/>
        <path d="M313.153,102.425C311.447,102.425 310.047,101.852 308.953,100.705C307.86,99.559 307.313,98.159 307.313,96.505C307.313,94.799 307.86,93.385 308.953,92.265C310.047,91.145 311.447,90.585 313.153,90.585C314.86,90.585 316.26,91.145 317.353,92.265C318.447,93.385 318.993,94.799 318.993,96.505C318.993,98.159 318.447,99.559 317.353,100.705C316.26,101.852 314.86,102.425 313.153,102.425Z" style="fill:rgb(33,37,39);fill-rule:nonzero;"/>
    </g>
</svg>
