<?xml version="1.0" standalone="no"?>
<!DOCTYPE svg PUBLIC "-//W3C//DTD SVG 20010904//EN"
 "http://www.w3.org/TR/2001/REC-SVG-20010904/DTD/svg10.dtd">
<svg version="1.0" xmlns="http://www.w3.org/2000/svg"
 width="2294.000000pt" height="2294.000000pt" viewBox="0 0 2294.000000 2294.000000"
 preserveAspectRatio="xMidYMid meet">
<metadata>
Created by potrace 1.14, written by Peter Selinger 2001-2017
</metadata>
<g transform="translate(0.000000,2294.000000) scale(0.100000,-0.100000)"
fill="#000000" stroke="none">
<path d="M10383 13906 c-4 -5 -6 -443 -6 -973 0 -530 -1 -963 -3 -963 -2 0
-31 28 -66 63 -186 187 -456 311 -743 343 -111 12 -334 6 -415 -11 -14 -3 -36
-7 -50 -10 -68 -13 -92 -19 -180 -48 -52 -17 -96 -35 -98 -39 -2 -4 -9 -8 -17
-8 -19 0 -161 -78 -235 -129 -119 -82 -251 -203 -325 -296 -16 -21 -34 -43
-40 -49 -5 -6 -23 -31 -40 -56 -16 -25 -33 -47 -36 -50 -12 -10 -95 -168 -127
-240 -35 -80 -86 -233 -97 -290 -3 -19 -8 -44 -10 -55 -2 -11 -4 -20 -5 -20
-3 0 -9 -39 -16 -100 -3 -33 -8 -73 -10 -90 -10 -85 -3 -346 11 -442 17 -117
59 -291 84 -348 5 -11 17 -40 26 -65 44 -119 183 -350 272 -451 39 -44 166
-169 200 -197 93 -76 383 -246 383 -225 0 3 6 0 13 -6 8 -6 17 -8 20 -4 4 3 7
1 7 -6 0 -7 4 -10 8 -7 5 3 20 -1 35 -9 15 -8 27 -12 27 -10 0 2 17 -2 38 -9
36 -13 125 -31 207 -43 84 -12 348 -10 424 4 42 7 87 15 101 17 14 2 27 5 30
7 3 1 10 3 15 4 33 4 162 52 231 86 127 61 212 120 318 222 33 31 61 57 62 57
1 0 2 -69 2 -152 0 -84 0 -162 1 -173 1 -20 8 -20 361 -20 197 1 362 3 365 7
4 4 6 1793 5 4729 l0 66 -361 0 c-226 0 -362 -4 -366 -11z m-673 -2231 c77
-14 211 -66 282 -109 85 -52 199 -158 248 -231 19 -27 36 -52 40 -55 6 -6 72
-149 89 -195 69 -189 72 -515 5 -710 -9 -27 -17 -54 -18 -60 -2 -5 -10 -28
-20 -50 -9 -22 -16 -42 -16 -44 1 -2 -3 -7 -8 -10 -5 -3 -17 -22 -27 -41 -46
-89 -203 -259 -257 -276 -10 -3 -18 -9 -18 -13 0 -6 -90 -54 -135 -71 -81 -31
-79 -31 -182 -51 -112 -21 -369 -11 -433 18 -8 3 -17 7 -20 8 -117 30 -280
129 -368 224 -45 50 -134 171 -125 171 5 0 4 4 -2 8 -10 7 -50 79 -50 91 -1 3
-11 32 -23 63 -12 32 -24 68 -26 80 -22 108 -25 131 -21 138 3 5 1 11 -4 14
-5 4 -8 69 -6 154 3 137 6 166 21 232 3 14 8 35 10 48 19 99 110 281 183 365
70 82 204 197 228 197 5 0 15 6 22 13 6 6 15 12 19 13 4 0 28 10 54 22 69 31
146 52 208 58 30 3 57 8 60 11 6 6 243 -3 290 -12z"/>
<path d="M15486 11526 c0 -1315 3 -2396 6 -2401 4 -6 141 -10 365 -9 l358 0 3
390 c2 214 3 400 2 414 -1 14 -2 32 -1 40 0 8 0 98 0 200 -1 102 0 191 0 198
1 6 1 18 2 25 1 27 1 1114 -1 1137 -1 14 -2 32 -1 40 0 8 0 98 0 200 -1 102 0
191 0 198 1 6 1 18 1 25 1 22 1 151 -1 177 0 14 -1 32 0 40 0 8 0 98 0 200 -1
102 0 191 0 198 1 6 1 18 1 25 1 22 1 151 -1 177 0 14 -1 32 0 40 0 8 0 98 0
200 -1 102 0 191 0 198 1 6 1 18 1 25 1 22 1 151 -1 177 0 14 -1 32 0 40 2
111 0 385 -4 388 -2 3 0 13 6 23 5 11 6 20 2 21 -4 1 -172 2 -373 3 l-365 2 1
-2391z"/>
<path d="M91 13770 c-5 -11 -7 -4559 -2 -4640 1 -13 49 -15 374 -14 205 0 378
3 383 6 5 4 9 630 8 1607 0 881 1 1601 3 1601 1 0 22 -26 45 -57 24 -32 45
-60 48 -63 3 -3 17 -21 30 -40 13 -19 37 -48 52 -65 15 -16 28 -33 28 -37 0
-4 6 -13 13 -20 6 -7 28 -34 47 -58 19 -25 38 -46 42 -48 4 -2 8 -9 8 -15 0
-7 10 -23 23 -37 12 -14 38 -45 57 -70 19 -25 38 -46 42 -48 5 -2 8 -9 8 -16
0 -6 8 -19 18 -28 9 -9 28 -33 42 -53 14 -20 32 -44 41 -53 8 -9 44 -55 79
-102 35 -47 68 -89 72 -95 5 -5 22 -28 39 -50 16 -22 35 -47 42 -55 7 -8 23
-31 37 -50 13 -19 27 -37 30 -40 3 -3 28 -34 55 -70 27 -36 53 -69 57 -75 10
-12 53 -69 88 -115 14 -18 36 -47 50 -65 14 -18 36 -47 50 -65 14 -19 57 -74
95 -124 39 -50 120 -156 180 -236 61 -80 112 -147 116 -150 3 -3 18 -23 34
-45 17 -22 32 -42 35 -45 3 -3 25 -32 50 -65 88 -118 185 -240 192 -243 5 -2
8 -9 8 -14 0 -6 7 -18 15 -27 18 -20 33 -39 175 -226 63 -82 116 -152 120
-155 3 -3 23 -30 45 -60 22 -30 47 -63 55 -72 9 -9 54 -69 100 -132 47 -63 94
-118 105 -122 26 -9 503 -11 518 -2 14 9 17 4647 2 4656 -5 4 -176 7 -378 7
-318 0 -370 -2 -376 -15 -4 -8 -6 -732 -6 -1609 l1 -1594 -20 25 c-12 13 -32
39 -46 58 -29 39 -265 348 -283 370 -7 9 -25 33 -41 55 -17 22 -33 42 -36 45
-3 3 -17 21 -30 40 -14 19 -30 42 -37 50 -7 8 -42 53 -77 100 -36 47 -69 90
-74 95 -4 6 -37 48 -72 95 -36 47 -67 87 -70 90 -3 3 -39 50 -80 105 -41 55
-85 111 -97 125 -13 14 -23 28 -23 31 0 3 -12 19 -26 35 -14 16 -33 40 -42 54
-10 14 -53 72 -97 129 -101 129 -194 251 -219 286 -11 14 -27 35 -35 45 -9 10
-76 97 -149 193 -72 96 -140 184 -150 196 -25 31 -45 57 -104 136 -29 39 -55
72 -58 75 -3 3 -24 30 -46 60 -151 200 -287 375 -295 378 -5 2 -9 8 -9 14 0 5
-19 33 -42 62 -24 29 -52 65 -63 80 -11 16 -42 56 -69 90 -26 33 -54 70 -62
81 -13 18 -27 19 -275 20 -224 0 -262 -2 -268 -15z"/>
<path d="M17353 13777 c-2 -4 -8 -5 -13 -2 -5 3 -33 -1 -61 -9 -152 -46 -271
-183 -296 -343 -49 -325 201 -567 527 -509 113 20 234 113 283 218 33 69 58
166 46 174 -6 3 -6 11 -1 17 13 17 1 117 -21 177 -66 180 -208 279 -410 284
-27 1 -51 -2 -54 -7z"/>
<path d="M13266 12382 c-2 -1 -32 -5 -67 -8 -105 -8 -198 -26 -314 -59 -5 -1
-13 -3 -17 -4 -74 -13 -389 -170 -458 -229 -8 -7 -55 -45 -105 -86 -92 -75
-152 -136 -215 -216 -19 -25 -37 -47 -41 -50 -11 -9 -104 -155 -124 -195 -11
-22 -26 -47 -33 -57 -8 -9 -15 -22 -16 -30 -1 -7 -12 -35 -24 -62 -18 -40 -68
-184 -76 -221 -7 -29 -26 -124 -31 -150 -25 -140 -25 -443 -1 -580 24 -138 26
-148 36 -175 5 -14 11 -34 13 -45 2 -11 9 -33 15 -48 7 -16 12 -34 12 -40 0
-7 6 -21 14 -32 7 -11 14 -23 15 -27 7 -33 63 -150 105 -218 36 -58 80 -124
86 -130 3 -3 18 -23 34 -45 33 -46 263 -275 276 -275 5 0 15 -6 22 -13 21 -21
136 -97 147 -97 5 0 11 -3 13 -7 7 -17 241 -128 287 -137 9 -2 28 -8 42 -14
15 -6 44 -14 65 -18 22 -3 43 -9 49 -12 5 -3 16 -7 25 -8 8 -1 24 -4 35 -7 11
-3 45 -8 75 -12 30 -5 69 -10 85 -12 55 -8 399 -7 450 1 28 4 64 10 80 12 17
2 48 8 70 14 22 5 56 13 75 16 19 3 84 24 145 46 60 21 115 40 120 41 6 1 12
4 15 7 3 3 39 23 80 43 92 47 131 70 200 122 29 22 60 45 68 50 33 23 182 176
182 188 0 7 -34 46 -76 87 -42 41 -83 83 -92 93 -10 10 -78 80 -153 156 l-136
138 -44 -44 c-24 -25 -66 -61 -94 -81 -27 -20 -51 -40 -53 -44 -2 -5 -8 -8
-12 -8 -5 0 -32 -13 -60 -30 -28 -16 -57 -30 -65 -30 -8 0 -15 -5 -15 -12 0
-6 -3 -9 -6 -5 -3 3 -26 -3 -51 -14 -150 -64 -421 -88 -623 -54 -105 17 -301
96 -351 141 -8 8 -20 14 -26 14 -20 0 -170 155 -209 215 -63 99 -134 262 -134
309 0 8 318 11 1190 11 l1190 0 7 35 c4 19 6 38 5 43 -1 4 1 7 5 7 5 0 8 12 9
28 0 15 4 59 8 97 14 128 6 329 -18 450 -2 11 -7 40 -12 65 -9 51 -11 59 -13
63 -2 1 -4 13 -7 25 -2 13 -15 56 -29 95 -14 40 -27 77 -29 82 -22 68 -143
297 -166 315 -4 3 -18 23 -33 44 -44 66 -165 194 -241 254 -39 31 -72 60 -74
65 -2 4 -8 7 -14 7 -5 0 -24 11 -41 24 -60 45 -204 116 -307 152 -101 35 -120
41 -170 49 -14 2 -36 7 -50 10 -44 10 -89 16 -148 21 -68 6 -272 10 -276 6z
m304 -690 c65 -14 80 -19 126 -35 229 -83 387 -265 465 -536 10 -35 17 -67 14
-70 -2 -4 -383 -7 -847 -6 -743 0 -843 2 -842 15 1 46 65 196 116 274 60 91
187 210 268 251 19 10 37 21 40 24 10 12 166 68 208 75 15 2 27 5 27 6 0 1 16
4 35 7 19 2 36 6 38 8 7 7 311 -4 352 -13z"/>
<path d="M19945 12382 c-2 -2 -23 -5 -47 -7 -56 -5 -140 -15 -164 -19 -112
-23 -249 -62 -324 -93 -8 -3 -18 -5 -22 -5 -5 1 -8 -2 -8 -8 0 -5 -5 -10 -10
-10 -16 0 -100 -41 -169 -82 -34 -21 -67 -38 -72 -38 -5 0 -12 -7 -15 -15 -4
-8 -12 -15 -19 -15 -6 0 -20 -9 -30 -20 -10 -11 -22 -20 -27 -20 -4 0 -16 -8
-26 -17 -10 -10 -31 -27 -45 -39 -42 -32 -153 -141 -189 -185 -18 -23 -41 -50
-50 -61 -9 -10 -34 -45 -55 -76 -21 -31 -42 -60 -48 -64 -5 -4 -6 -8 -2 -8 5
0 -1 -12 -12 -26 -12 -15 -21 -32 -21 -40 0 -7 -3 -14 -8 -16 -7 -3 -53 -99
-83 -173 -15 -36 -14 -33 -24 -70 -4 -16 -10 -34 -14 -40 -3 -5 -6 -14 -7 -20
-1 -5 -10 -41 -19 -80 -24 -100 -25 -103 -41 -240 -6 -48 -6 -317 0 -360 2
-16 7 -50 10 -75 4 -25 9 -58 13 -75 3 -16 8 -37 9 -45 1 -8 4 -22 7 -30 2 -8
7 -28 11 -45 38 -150 113 -320 205 -460 25 -38 48 -74 50 -80 2 -5 9 -15 15
-21 6 -6 25 -28 41 -49 84 -108 276 -276 407 -356 62 -38 218 -118 218 -112 0
3 6 1 13 -5 12 -9 184 -69 222 -76 11 -3 43 -10 70 -16 50 -12 64 -14 165 -27
66 -9 376 -8 440 1 25 3 59 8 75 10 17 3 32 5 35 6 3 2 8 2 12 1 4 0 19 4 34
9 15 6 43 13 62 16 145 23 457 177 597 295 55 46 205 193 205 200 0 3 -107
115 -238 248 l-238 241 -43 -45 c-155 -162 -375 -262 -621 -281 -41 -3 -84 -7
-95 -9 -11 -1 -28 2 -37 7 -11 5 -18 5 -18 0 0 -6 -18 -6 -42 -2 -24 4 -63 10
-88 14 -112 14 -206 49 -339 127 -50 29 -178 147 -221 204 -34 45 -113 185
-115 205 0 3 -5 19 -12 35 -24 63 -26 71 -28 91 -1 12 -5 30 -9 40 -4 10 -11
37 -14 59 -9 58 -8 313 1 360 4 22 9 53 12 69 2 17 14 59 26 95 98 306 343
527 660 597 82 18 289 24 374 11 229 -36 399 -115 543 -256 35 -33 65 -61 67
-61 2 0 93 91 202 201 109 111 215 217 236 237 20 19 37 38 37 42 0 17 -176
185 -240 230 -19 14 -37 27 -40 30 -34 38 -339 191 -404 204 -12 3 -41 12 -65
20 -24 9 -56 19 -70 21 -74 15 -193 35 -246 40 -66 7 -295 12 -300 7z"/>
<path d="M4440 12310 c0 -8 22 -65 45 -115 7 -16 37 -86 65 -155 29 -69 58
-138 66 -155 50 -114 94 -220 94 -232 0 -7 5 -13 12 -13 6 0 8 -3 5 -7 -4 -3
-3 -11 1 -17 7 -9 55 -121 58 -136 1 -5 23 -56 55 -126 10 -22 28 -65 39 -95
12 -30 28 -69 36 -86 30 -70 44 -102 88 -208 26 -60 51 -119 56 -130 5 -11 71
-166 146 -345 75 -179 145 -344 155 -367 10 -23 19 -44 19 -47 0 -5 22 -56 66
-153 8 -17 14 -34 14 -37 0 -3 11 -29 24 -58 14 -29 37 -82 51 -118 27 -65 39
-95 68 -160 51 -117 50 -106 17 -170 -16 -31 -26 -60 -23 -64 4 -3 2 -6 -4 -6
-5 0 -27 -39 -48 -87 -21 -49 -44 -95 -52 -104 -7 -8 -13 -18 -13 -22 0 -4
-28 -64 -62 -134 -34 -71 -61 -131 -60 -135 1 -5 -3 -8 -8 -8 -6 0 -10 -4 -10
-10 0 -5 -25 -59 -54 -120 -30 -60 -52 -110 -48 -110 4 0 2 -4 -3 -8 -6 -4
-27 -41 -47 -82 -20 -41 -77 -160 -128 -265 -50 -104 -111 -231 -136 -280 -24
-50 -44 -94 -44 -98 0 -5 -7 -15 -15 -24 -37 -36 -19 -38 393 -38 l402 -1 30
64 c17 35 30 70 30 78 0 8 5 14 10 14 6 0 10 4 10 10 0 9 25 67 80 185 26 55
83 180 110 240 12 28 36 79 52 115 17 36 64 139 105 230 41 91 79 171 85 178
6 6 7 12 4 12 -4 0 -1 10 6 23 7 12 11 25 10 30 -1 4 3 7 9 7 5 0 8 4 5 9 -3
5 1 14 9 21 8 7 15 18 15 25 0 6 6 25 14 41 16 32 130 279 166 359 12 28 36
79 53 115 17 36 32 67 32 70 2 6 39 85 99 213 25 54 49 109 52 122 3 14 9 25
13 25 4 0 13 17 20 37 8 20 35 82 61 137 48 101 79 168 120 261 12 28 26 57
31 65 5 8 12 22 15 30 3 8 21 47 40 87 18 40 43 96 55 125 13 29 31 68 41 86
10 18 18 39 18 47 0 8 5 15 10 15 6 0 10 6 10 14 0 8 9 31 19 53 22 42 76 158
114 243 26 59 72 158 117 255 15 33 38 83 50 110 12 28 33 72 46 98 13 27 24
54 24 62 0 7 7 18 15 25 8 7 15 21 15 31 0 9 8 25 18 35 9 10 16 20 16 23 -1
3 2 16 7 29 5 13 9 27 9 31 0 4 5 12 12 19 6 6 13 17 14 24 1 7 21 54 45 103
23 50 43 92 44 95 2 7 80 178 91 201 5 10 -789 7 -808 -3 -10 -5 -17 -12 -16
-16 1 -4 -5 -23 -14 -42 -14 -30 -27 -61 -33 -80 -2 -6 3 6 -88 -210 -38 -91
-70 -170 -71 -176 -1 -7 -8 -19 -15 -28 -7 -9 -10 -16 -6 -16 4 0 0 -11 -9
-25 -9 -14 -14 -25 -11 -25 4 0 -2 -17 -13 -37 -19 -37 -56 -122 -58 -133 0
-3 -6 -16 -11 -30 -6 -14 -34 -81 -62 -150 -29 -69 -56 -134 -61 -145 -27 -56
-80 -191 -80 -202 0 -7 -4 -13 -10 -13 -5 0 -10 -7 -10 -15 0 -8 -11 -39 -25
-69 -14 -30 -25 -57 -25 -60 0 -4 -9 -25 -20 -49 -10 -23 -33 -77 -49 -119
-17 -43 -35 -86 -40 -95 -9 -17 -45 -104 -109 -265 -15 -38 -29 -68 -32 -68
-3 0 -18 35 -34 77 -15 42 -35 92 -44 112 -9 20 -16 38 -17 41 -1 7 -40 107
-56 145 -7 17 -13 32 -14 35 0 3 -27 73 -60 155 -33 83 -60 152 -60 155 -1 3
-7 16 -13 30 -6 14 -41 102 -77 195 -37 94 -82 208 -101 253 -19 46 -34 88
-34 93 0 4 -11 33 -25 63 -14 30 -25 58 -25 63 -1 4 -9 26 -20 48 -11 22 -19
45 -20 52 0 6 -13 40 -28 75 -16 34 -37 88 -47 118 -10 30 -21 60 -25 65 -4 6
-22 48 -39 95 -54 144 -75 195 -84 201 -12 9 -797 7 -797 -1z"/>
<path d="M17045 11676 c0 -353 -3 -648 -7 -657 -4 -9 -4 -19 -1 -23 4 -4 7
-428 7 -943 l1 -937 365 0 365 0 0 1599 0 1600 -366 1 -365 1 1 -641z"/>
<path d="M22339 10036 c-2 -2 -22 -6 -44 -9 -177 -25 -333 -180 -371 -369 -22
-109 -3 -258 48 -357 24 -48 136 -171 156 -171 7 0 12 -3 12 -8 0 -9 59 -35
126 -55 60 -18 237 -17 272 2 12 6 22 9 22 5 0 -3 7 0 17 7 9 8 17 12 17 10 1
-2 19 4 40 14 36 18 128 100 168 152 79 102 106 306 61 447 -55 170 -195 296
-358 323 -34 5 -163 12 -166 9z"/>
</g>
</svg>
